<svg width="18" height="20" viewBox="0 0 18 20" fill="none" xmlns="http://www.w3.org/2000/svg">
<path fill-rule="evenodd" clip-rule="evenodd" d="M4.23935 0.461396C2.15124 0.851758 0.562252 2.55367 0.321022 4.65818L0.30532 4.79516C0.0666781 6.8771 -0.0320697 8.97095 0.00907663 11.0627L0.492909 11.4845C0.929312 11.865 2.1302 12.8664 4.92034 13.4014C5.24108 12.5957 5.6958 11.9426 6.34116 11.4835C7.07906 10.9585 7.97772 10.75 9.00013 10.75C10.0225 10.75 10.9212 10.9585 11.6591 11.4835C12.305 11.943 12.76 12.5968 13.0807 13.4035C13.972 13.2329 14.694 13.0151 15.2763 12.7871C16.5597 12.2847 17.195 11.7214 17.4926 11.4479L17.9902 10.9906C18.0342 8.84015 17.9299 6.68756 17.6774 4.54809C17.4367 2.50764 15.8934 0.860195 13.8681 0.48157L13.5451 0.421195C10.541 -0.140399 7.45846 -0.140398 4.4544 0.421195L4.23935 0.461396ZM5.48897 2.97983C5.80305 2.70978 5.83874 2.23625 5.56869 1.92217C5.29863 1.6081 4.8251 1.57241 4.51103 1.84246C4.04402 2.244 3.75 2.84191 3.75 3.41115C3.75 4.42483 4.51705 5.12172 5.40313 5.52602C6.31388 5.94158 7.55558 6.16115 9 6.16115C10.4444 6.16115 11.6861 5.94158 12.5969 5.52602C13.483 5.12172 14.25 4.42483 14.25 3.41115C14.25 2.78763 13.9047 2.28849 13.489 1.931C13.1749 1.66094 12.7014 1.69663 12.4313 2.01071C12.1613 2.32479 12.1969 2.79832 12.511 3.06837C12.7359 3.26174 12.75 3.3811 12.75 3.41115C12.75 3.55093 12.6478 3.85404 11.9742 4.16137C11.3253 4.45745 10.317 4.66115 9 4.66115C7.683 4.66115 6.6747 4.45745 6.0258 4.16137C5.35224 3.85404 5.25 3.55093 5.25 3.41115C5.25 3.37939 5.26057 3.30992 5.30437 3.21986C5.34679 3.13261 5.4102 3.04756 5.48897 2.97983Z" fill="white"/>
<path d="M9.00007 13.7501C8.05957 13.7501 7.21651 13.7046 6.46142 13.6261C6.67539 13.2002 6.92674 12.9078 7.21075 12.7057C7.61562 12.4176 8.17583 12.25 9.00013 12.25C9.82443 12.25 10.3846 12.4176 10.7895 12.7057C11.0738 12.9079 11.3253 13.2008 11.5394 13.6272C10.7867 13.7049 9.94359 13.7501 9.00007 13.7501Z" fill="white"/>
<path d="M17.9023 13.0568C17.4436 13.3987 16.7769 13.8105 15.8231 14.1839C14.325 14.7704 12.1505 15.2501 9.00007 15.2501C3.86299 15.2501 1.31022 13.9556 0.0922077 13.0802C0.142595 13.8829 0.213632 14.6845 0.30532 15.4844C0.552662 17.6422 2.24868 19.3512 4.41019 19.6206L5.42569 19.7471C5.92051 19.8088 6.16792 19.8396 6.41505 19.8654C8.13349 20.0448 9.86602 20.0448 11.5845 19.8654C11.8316 19.8396 12.079 19.8088 12.5738 19.7471L13.48 19.6342C15.7041 19.357 17.4473 17.5951 17.6948 15.3739L17.712 15.2199C17.7922 14.5 17.8556 13.7788 17.9023 13.0568Z" fill="white"/>
</svg>
