<svg width="10" height="12" viewBox="0 0 10 12" fill="none" xmlns="http://www.w3.org/2000/svg">
<path fill-rule="evenodd" clip-rule="evenodd" d="M5.45899 0.541673C4.91754 0.375745 4.47858 0.73811 4.17712 1.05136C3.8493 1.39201 3.46268 1.91513 2.9882 2.55713L1.43313 4.66112L1.40937 4.69326C1.1085 5.10027 0.849368 5.45083 0.693376 5.74372C0.534601 6.04183 0.398121 6.43482 0.604676 6.83361C0.747732 7.10981 0.989807 7.26316 1.21184 7.34782C1.43101 7.43139 1.66937 7.46382 1.87954 7.47653C2.09352 7.48947 2.30746 7.48333 2.48683 7.47516C2.55204 7.47219 2.60985 7.46917 2.66163 7.46646C2.76435 7.46109 2.84334 7.45696 2.90934 7.45696C2.97484 7.45696 3.05162 7.4545 3.12096 7.45227C3.15056 7.45132 3.17881 7.45042 3.20425 7.44976C3.29988 7.44731 3.38498 7.44715 3.46257 7.45283C3.62154 7.46448 3.67561 7.49636 3.68886 7.50706C3.69826 7.51836 3.73333 7.57384 3.74205 7.75439C3.74629 7.84199 3.74362 7.93749 3.7387 8.04535L3.73573 8.1072C3.73151 8.19322 3.72674 8.29068 3.72673 8.37752L3.72673 8.41921C3.7267 9.20502 3.72668 9.84784 3.78889 10.3096C3.84611 10.7342 3.98936 11.2912 4.54187 11.4606C5.08333 11.6265 5.5223 11.2641 5.82376 10.9509C6.15158 10.6102 6.53822 10.0871 7.01271 9.4451L8.59154 7.309C8.89241 6.90199 9.15154 6.55144 9.30754 6.25855C9.46631 5.96045 9.60279 5.56747 9.39626 5.16869C9.2532 4.89248 9.01111 4.7391 8.78908 4.65444C8.57345 4.57222 8.33924 4.5395 8.13158 4.52636L8.12138 4.52573C7.90739 4.51279 7.69345 4.51893 7.51408 4.5271C7.44886 4.53007 7.39105 4.53309 7.33927 4.5358C7.23655 4.54117 7.15757 4.5453 7.09157 4.5453C6.76993 4.5453 6.57638 4.54435 6.43707 4.52659C6.37289 4.5184 6.33988 4.50866 6.32435 4.50262C6.32076 4.50122 6.31835 4.50011 6.3169 4.4994L6.3159 4.49889C6.2928 4.47436 6.26009 4.41756 6.25295 4.2543C6.2493 4.17075 6.25302 4.07903 6.25933 3.96995L6.26226 3.92083C6.26774 3.83 6.27417 3.72344 6.27417 3.62468L6.27418 3.58299L6.25 2.5L6.21199 1.69262C6.15477 1.268 6.0115 0.710989 5.45899 0.541673ZM4.89766 1.74477C4.62073 2.03254 4.2726 2.50178 3.76838 3.18397L2.23731 5.25549C1.90592 5.70387 1.69285 5.9944 1.576 6.2138C1.52894 6.30216 1.51083 6.35456 1.50421 6.38201C1.51565 6.38989 1.53538 6.40096 1.56812 6.41344C1.65195 6.44541 1.77605 6.46845 1.93989 6.47835C2.09992 6.48803 2.27154 6.48393 2.44135 6.4762C2.48457 6.47423 2.5301 6.47186 2.5761 6.46946C2.69462 6.46329 2.81623 6.45696 2.90934 6.45696C2.93837 6.45696 2.98155 6.45563 3.03352 6.45403C3.17207 6.44978 3.37315 6.4436 3.53564 6.4555C3.77573 6.47309 4.11882 6.5332 4.38389 6.78788L4.38775 6.79159C4.67361 7.07218 4.72853 7.45027 4.74089 7.70614C4.74752 7.84334 4.74281 7.9781 4.73766 8.09098C4.73635 8.11949 4.73506 8.14604 4.73385 8.17099C4.72987 8.2529 4.72673 8.31754 4.72673 8.37754C4.72672 9.21509 4.72785 9.78944 4.77994 10.1761C4.80204 10.3401 4.82837 10.4309 4.84756 10.4789C4.89369 10.4513 4.97535 10.3903 5.10322 10.2575C5.38015 9.9697 5.72829 9.50046 6.23252 8.81826L7.76359 6.74677C8.09499 6.29839 8.30806 6.00786 8.42492 5.78846C8.47198 5.7001 8.49009 5.6477 8.49671 5.62025C8.48527 5.61237 8.46554 5.6013 8.4328 5.58882C8.34897 5.55685 8.22487 5.53381 8.06102 5.52391C7.90099 5.51423 7.72937 5.51833 7.55956 5.52606C7.51633 5.52803 7.4708 5.5304 7.4248 5.5328C7.30628 5.53897 7.18468 5.5453 7.09157 5.5453L7.06301 5.54531C6.77936 5.54534 6.52085 5.54536 6.3106 5.51856C6.08125 5.48932 5.83619 5.42075 5.63091 5.22767L5.62702 5.22402C5.32913 4.93781 5.26574 4.56886 5.25391 4.29794C5.24786 4.15959 5.25452 4.02407 5.261 3.91215L5.26454 3.85218C5.26997 3.76122 5.27417 3.69061 5.27417 3.62468C5.27417 2.78714 5.27304 2.21279 5.22094 1.82617C5.19884 1.66217 5.17251 1.57136 5.15332 1.52332C5.10718 1.55091 5.02553 1.6119 4.89766 1.74477Z" fill="#909499"/>
</svg>
