<svg width="21" height="20" viewBox="0 0 21 20" fill="none" xmlns="http://www.w3.org/2000/svg">
<path fill-rule="evenodd" clip-rule="evenodd" d="M1.0192 5.82274C0.5 6.77128 0.5 7.91549 0.5 10.2039V11.725C0.5 15.6258 0.5 17.5763 1.67157 18.7881C2.84315 20 4.72876 20 8.5 20H12.5C16.2712 20 18.1569 20 19.3284 18.7881C20.5 17.5763 20.5 15.6258 20.5 11.725V10.2039C20.5 7.91549 20.5 6.77128 19.9808 5.82274C19.4616 4.87421 18.5131 4.28551 16.616 3.10812L14.616 1.86687C12.6106 0.62229 11.6079 0 10.5 0C9.39206 0 8.38939 0.62229 6.38403 1.86687L4.38403 3.10813C2.48695 4.28551 1.5384 4.87421 1.0192 5.82274ZM7.94661 13.3975C7.61385 13.1508 7.14413 13.2206 6.89747 13.5534C6.65082 13.8862 6.72062 14.3559 7.05339 14.6025C8.0258 15.3233 9.21503 15.75 10.5 15.75C11.785 15.75 12.9742 15.3233 13.9466 14.6025C14.2794 14.3559 14.3492 13.8862 14.1025 13.5534C13.8559 13.2206 13.3862 13.1508 13.0534 13.3975C12.325 13.9373 11.4459 14.25 10.5 14.25C9.5541 14.25 8.67495 13.9373 7.94661 13.3975Z" fill="#6C63FF"/>
</svg>
