<svg width="12" height="12" viewBox="0 0 12 12" fill="none" xmlns="http://www.w3.org/2000/svg">
<path fill-rule="evenodd" clip-rule="evenodd" d="M6.99379 1.27351C6.44959 0.699317 5.55041 0.699317 5.00621 1.27351C4.70347 1.59294 4.33919 2.01166 4.04747 2.45357C3.76818 2.87666 3.5 3.40179 3.5 3.91669C3.5 5.32399 4.60025 6.50002 6 6.50002C7.39975 6.50002 8.5 5.32399 8.5 3.91669C8.5 3.40179 8.23182 2.87666 7.95253 2.45357C7.66081 2.01166 7.29653 1.59294 6.99379 1.27351ZM5.73202 1.9614C5.88182 1.80335 6.11818 1.80335 6.26798 1.9614C6.55139 2.26044 6.87167 2.63138 7.11797 3.00449C7.37669 3.39641 7.5 3.71167 7.5 3.91669C7.5 4.81057 6.80939 5.50002 6 5.50002C5.19061 5.50002 4.5 4.81057 4.5 3.91669C4.5 3.71167 4.62331 3.39641 4.88203 3.00449C5.12833 2.63138 5.44861 2.26044 5.73202 1.9614Z" fill="#909499"/>
<path fill-rule="evenodd" clip-rule="evenodd" d="M2.00621 6.27351C2.55041 5.69932 3.44959 5.69932 3.99379 6.27351C4.29653 6.59294 4.66081 7.01166 4.95253 7.45357C5.23182 7.87666 5.5 8.40179 5.5 8.91669C5.5 10.324 4.39975 11.5 3 11.5C1.60025 11.5 0.5 10.324 0.5 8.91669C0.5 8.40179 0.768175 7.87666 1.04747 7.45357C1.33919 7.01166 1.70347 6.59294 2.00621 6.27351ZM3.26798 6.9614C3.11818 6.80335 2.88182 6.80335 2.73202 6.9614C2.44861 7.26044 2.12833 7.63138 1.88203 8.00449C1.62331 8.39641 1.5 8.71167 1.5 8.91669C1.5 9.81057 2.19061 10.5 3 10.5C3.80939 10.5 4.5 9.81057 4.5 8.91669C4.5 8.71167 4.37669 8.39641 4.11797 8.00449C3.87167 7.63138 3.55139 7.26044 3.26798 6.9614Z" fill="#909499"/>
<path fill-rule="evenodd" clip-rule="evenodd" d="M9.99379 6.27351C9.44959 5.69932 8.55041 5.69932 8.00621 6.27351C7.70347 6.59294 7.33919 7.01166 7.04747 7.45357C6.76818 7.87666 6.5 8.40179 6.5 8.91669C6.5 10.324 7.60025 11.5 9 11.5C10.3998 11.5 11.5 10.324 11.5 8.91669C11.5 8.40179 11.2318 7.87666 10.9525 7.45357C10.6608 7.01166 10.2965 6.59294 9.99379 6.27351ZM8.73202 6.9614C8.88182 6.80335 9.11819 6.80335 9.26798 6.9614C9.55139 7.26044 9.87167 7.63138 10.118 8.00449C10.3767 8.39641 10.5 8.71167 10.5 8.91669C10.5 9.81057 9.80939 10.5 9 10.5C8.19061 10.5 7.5 9.81057 7.5 8.91669C7.5 8.71167 7.62331 8.39641 7.88203 8.00449C8.12833 7.63138 8.44861 7.26044 8.73202 6.9614Z" fill="#909499"/>
</svg>
