<svg width="21" height="16" viewBox="0 0 21 16" fill="none" xmlns="http://www.w3.org/2000/svg">
<path d="M3.47883 5.68508C1.49294 4.89073 0.5 4.49355 0.5 4C0.5 3.50645 1.49294 3.10927 3.47883 2.31492L6.2873 1.19153C8.27318 0.397177 9.26613 0 10.5 0C11.7339 0 12.7268 0.397177 14.7127 1.19153L17.5212 2.31492C19.5071 3.10927 20.5 3.50645 20.5 4C20.5 4.49355 19.5071 4.89073 17.5212 5.68508L14.7127 6.80847C12.7268 7.60282 11.7339 8 10.5 8C9.26613 8 8.27318 7.60282 6.2873 6.80847L3.47883 5.68508Z" fill="black"/>
<path fill-rule="evenodd" clip-rule="evenodd" d="M0.5 4C0.5 4.49355 1.49294 4.89073 3.47883 5.68508L6.2873 6.80847C8.27318 7.60282 9.26613 8 10.5 8C11.7339 8 12.7268 7.60282 14.7127 6.80847L17.5212 5.68508C19.5071 4.89073 20.5 4.49355 20.5 4C20.5 3.50645 19.5071 3.10927 17.5212 2.31492L14.7127 1.19153C12.7268 0.397177 11.7339 0 10.5 0C9.26613 0 8.27318 0.397177 6.2873 1.19153L3.47883 2.31492C1.49294 3.10927 0.5 3.50645 0.5 4Z" fill="#909499"/>
<path d="M17.5212 9.68508L14.7127 10.8085C12.7268 11.6028 11.7339 12 10.5 12C9.26613 12 8.27318 11.6028 6.2873 10.8085L3.47883 9.68508C1.49294 8.89073 0.5 8.49355 0.5 8C0.5 7.55511 1.30681 7.18852 2.92043 6.53875L6.06143 7.79517C7.91007 8.53501 9.07196 9 10.5 9C11.928 9 13.0899 8.53501 14.9386 7.79517L18.0796 6.53875C19.6932 7.18852 20.5 7.55511 20.5 8C20.5 8.49355 19.5071 8.89073 17.5212 9.68508Z" fill="#909499"/>
<path d="M17.5212 13.6849L14.7127 14.8083C12.7268 15.6026 11.7339 15.9998 10.5 15.9998C9.26613 15.9998 8.27318 15.6026 6.2873 14.8083L3.47883 13.6849C1.49294 12.8905 0.5 12.4934 0.5 11.9998C0.5 11.5549 1.30681 11.1883 2.92043 10.5386L6.06143 11.795C7.91007 12.5348 9.07196 12.9998 10.5 12.9998C11.928 12.9998 13.0899 12.5348 14.9386 11.795L18.0796 10.5386C19.6932 11.1883 20.5 11.5549 20.5 11.9998C20.5 12.4934 19.5071 12.8905 17.5212 13.6849Z" fill="#909499"/>
</svg>
