<svg width="20" height="20" viewBox="0 0 20 20" fill="none" xmlns="http://www.w3.org/2000/svg">
<path fill-rule="evenodd" clip-rule="evenodd" d="M4.75 10C4.75 7.35515 6.70578 5.16709 9.25 4.80317V5.5C9.25 5.91421 9.58579 6.25 10 6.25C10.4142 6.25 10.75 5.91421 10.75 5.5V4.80317C13.2942 5.16709 15.25 7.35515 15.25 10C15.25 12.6449 13.2942 14.8329 10.75 15.1968V14.4999C10.75 14.0857 10.4142 13.7499 10 13.7499C9.58579 13.7499 9.25 14.0857 9.25 14.4999V15.1968C6.70578 14.8329 4.75 12.6449 4.75 10ZM13 10C13 10.5523 12.5523 11 12 11C11.4477 11 11 10.5523 11 10C11 9.44771 11.4477 9 12 9C12.5523 9 13 9.44771 13 10ZM8 11C8.55229 11 9 10.5523 9 10C9 9.44771 8.55229 9 8 9C7.44772 9 7 9.44771 7 10C7 10.5523 7.44772 11 8 11Z" fill="white"/>
<path fill-rule="evenodd" clip-rule="evenodd" d="M1.46447 1.46447C0 2.92893 0 5.28595 0 10C0 14.714 0 17.0711 1.46447 18.5355C2.92893 20 5.28595 20 10 20C14.714 20 17.0711 20 18.5355 18.5355C20 17.0711 20 14.714 20 10C20 5.28595 20 2.92893 18.5355 1.46447C17.0711 0 14.714 0 10 0C5.28595 0 2.92893 0 1.46447 1.46447ZM10 3.25C6.27208 3.25 3.25 6.27208 3.25 10C3.25 13.7279 6.27208 16.75 10 16.75C13.7279 16.75 16.75 13.7279 16.75 10C16.75 6.27208 13.7279 3.25 10 3.25Z" fill="white"/>
</svg>
