<svg width="8" height="12" viewBox="0 0 8 12" fill="none" xmlns="http://www.w3.org/2000/svg">
<path fill-rule="evenodd" clip-rule="evenodd" d="M3.5 6.57237C2.77707 6.78747 2.24988 7.45714 2.24988 8.24994C2.24988 9.21644 3.03338 9.99994 3.99988 9.99994C4.96638 9.99994 5.74988 9.21644 5.74988 8.24994C5.74988 7.45723 5.22281 6.78762 4.5 6.57244V2.5C4.5 2.22386 4.27614 2 4 2C3.72386 2 3.5 2.22386 3.5 2.5V6.57237ZM3.99384 7.49996C3.5824 7.50321 3.24988 7.83774 3.24988 8.24994C3.24988 8.66415 3.58566 8.99994 3.99988 8.99994C4.41409 8.99994 4.74988 8.66415 4.74988 8.24994C4.74988 7.83779 4.41743 7.50329 4.00607 7.49996C4.00405 7.49999 4.00202 7.5 4 7.5C3.99794 7.5 3.99589 7.49999 3.99384 7.49996Z" fill="#909499"/>
<path fill-rule="evenodd" clip-rule="evenodd" d="M2 2.5C2 1.39543 2.89543 0.5 4 0.5C5.10457 0.5 6 1.39543 6 2.5V5.673C6.00077 5.67615 6.00925 5.69519 6.03213 5.71355C6.77374 6.30835 7.25 7.22373 7.25 8.25C7.25 10.0449 5.79493 11.5 4 11.5C2.20507 11.5 0.75 10.0449 0.75 8.25C0.75 7.22373 1.22626 6.30835 1.96787 5.71355C1.99076 5.69519 1.99923 5.67615 2 5.673V2.5ZM4 1.5C3.44772 1.5 3 1.94772 3 2.5V5.67385C3 6.01994 2.82231 6.31015 2.59354 6.49364C2.07839 6.90681 1.75 7.53988 1.75 8.25C1.75 9.49264 2.75736 10.5 4 10.5C5.24264 10.5 6.25 9.49264 6.25 8.25C6.25 7.53988 5.92161 6.90681 5.40646 6.49364C5.17769 6.31015 5 6.01994 5 5.67385V2.5C5 1.94772 4.55228 1.5 4 1.5Z" fill="#909499"/>
</svg>
